<svg xmlns="http://www.w3.org/2000/svg" width="1387" height="756" viewBox="0 0 1387 756">
<g>
<path d="M 499.50 636.48 C496.75,635.71 494.23,635.07 493.89,635.04 C493.56,635.02 491.22,633.19 488.70,630.97 C480.91,624.11 480.00,620.17 480.00,593.46 L 480.00 571.00 L 487.40 571.00 L 494.80 571.00 L 495.17 591.75 C495.50,609.61 495.82,613.04 497.45,616.38 C502.60,626.89 519.98,626.10 525.71,615.09 C527.87,610.93 528.00,609.58 528.00,590.84 L 528.00 571.00 L 536.00 571.00 L 544.00 571.00 L 544.00 604.00 L 544.00 637.00 L 536.50 637.00 L 529.00 637.00 L 529.00 633.52 L 529.00 630.04 L 524.40 632.96 C519.79,635.88 512.26,638.06 507.20,637.93 C505.72,637.90 502.25,637.24 499.50,636.48 ZM 588.80 636.60 C586.22,635.91 582.28,634.13 580.05,632.65 L 576.00 629.97 L 576.00 633.49 L 576.00 637.00 L 568.49 637.00 L 560.98 637.00 L 561.24 591.25 L 561.50 545.50 L 568.75 545.21 L 576.00 544.91 L 576.00 561.41 L 576.00 577.92 L 580.89 574.88 C598.96,563.64 622.33,572.54 628.40,592.96 C631.64,603.87 629.68,616.64 623.44,625.24 C619.12,631.19 614.15,634.48 606.54,636.46 C599.49,638.28 595.18,638.32 588.80,636.60 ZM 603.58 622.10 C611.11,618.68 614.48,611.91 613.82,601.52 C613.13,590.71 606.21,584.01 595.71,584.00 C585.08,584.00 577.87,590.37 576.40,601.09 C575.21,609.75 580.20,619.44 587.48,622.61 C591.78,624.48 598.83,624.26 603.58,622.10 ZM 675.00 636.90 C667.68,635.63 658.53,631.20 653.00,626.25 C634.59,609.77 634.33,577.85 652.48,561.13 C662.15,552.21 677.09,547.75 690.72,549.71 C699.04,550.91 710.95,556.19 714.96,560.46 L 717.39 563.04 L 712.58 567.92 L 707.76 572.81 L 703.45 569.51 C696.52,564.23 691.27,562.67 682.15,563.20 C675.97,563.56 673.29,564.23 669.74,566.31 C652.80,576.24 649.30,601.39 662.95,615.05 C674.31,626.41 693.80,626.94 705.26,616.19 L 708.03 613.60 L 712.99 618.49 C717.77,623.20 717.89,623.46 716.23,625.31 C713.17,628.71 706.12,633.07 700.61,634.96 C693.90,637.27 682.21,638.16 675.00,636.90 ZM 386.00 593.46 L 386.00 549.92 L 394.25 550.21 L 402.50 550.50 L 402.68 567.50 L 402.86 584.50 L 424.43 584.77 L 446.00 585.04 L 446.00 567.52 L 446.00 550.00 L 454.00 550.00 L 462.00 550.00 L 462.00 593.50 L 462.00 637.00 L 454.02 637.00 L 446.04 637.00 L 445.77 618.25 L 445.50 599.50 L 424.00 599.50 L 402.50 599.50 L 402.40 609.00 C402.34,614.22 402.23,622.66 402.15,627.75 L 402.00 637.00 L 394.00 637.00 L 386.00 637.00 L 386.00 593.46 ZM 734.25 636.19 L 730.00 635.89 L 730.00 603.44 L 730.00 571.00 L 737.00 571.00 L 744.00 571.00 L 744.00 575.50 C744.00,579.86 745.22,581.47 746.33,578.58 C747.39,575.81 755.82,571.83 761.75,571.29 L 767.50 570.77 L 767.82 577.39 L 768.13 584.00 L 764.32 584.02 C759.99,584.05 752.37,587.18 750.33,589.77 C745.81,595.49 745.52,596.96 745.00,616.91 L 744.50 636.31 L 741.50 636.41 C739.85,636.46 736.59,636.36 734.25,636.19 ZM 795.07 634.98 C787.69,632.32 781.14,626.54 777.50,619.47 C774.78,614.18 774.50,612.73 774.50,604.07 C774.50,595.61 774.83,593.84 777.30,588.80 C780.81,581.65 788.38,574.70 795.07,572.48 C802.52,570.00 816.98,570.71 823.00,573.84 C832.55,578.80 838.01,586.63 840.04,598.28 C841.94,609.19 844.15,608.28 815.22,608.52 C801.31,608.64 789.63,609.03 789.26,609.41 C788.89,609.78 789.45,611.68 790.51,613.64 C796.80,625.33 813.55,628.62 824.68,620.37 L 827.85 618.01 L 831.93 622.16 C834.17,624.45 836.00,626.69 836.00,627.15 C836.00,628.78 827.60,634.04 822.65,635.51 C815.42,637.66 801.80,637.39 795.07,634.98 ZM 825.98 597.75 C825.97,597.06 825.12,594.66 824.10,592.42 C818.08,579.16 798.59,578.63 791.28,591.53 C786.96,599.15 786.63,599.00 807.50,599.00 C821.65,599.00 825.99,598.71 825.98,597.75 ZM 870.50 635.67 C862.20,632.42 857.08,627.82 852.76,619.72 C850.79,616.04 850.50,614.02 850.50,604.00 C850.50,593.43 850.72,592.09 853.21,587.36 C856.67,580.80 864.09,574.40 870.43,572.48 C873.14,571.67 878.67,571.00 882.71,571.00 C890.34,571.00 895.17,572.42 899.69,575.97 C901.11,577.09 902.66,578.00 903.13,578.00 C903.61,578.00 904.00,570.80 904.00,562.00 L 904.00 546.00 L 911.00 546.00 L 918.00 546.00 L 918.00 591.61 C918.00,632.78 917.85,637.16 916.42,636.61 C915.55,636.27 912.40,636.00 909.42,636.00 L 904.00 636.00 L 904.00 632.50 C904.00,630.58 903.55,629.00 903.00,629.00 C902.45,629.00 902.00,629.41 902.00,629.92 C902.00,630.43 899.23,632.23 895.84,633.92 C890.42,636.63 888.71,636.99 881.59,636.92 C877.14,636.88 872.15,636.32 870.50,635.67 ZM 891.51 623.14 C906.82,616.18 907.60,592.31 892.75,585.12 C878.15,578.05 862.39,589.77 864.34,606.24 C866.00,620.28 879.42,628.62 891.51,623.14 ZM 953.30 635.55 C947.82,633.84 938.72,627.18 939.41,625.38 C939.69,624.64 939.38,624.13 938.71,624.26 C936.95,624.61 933.11,616.27 931.81,609.23 C929.66,597.67 935.38,583.27 944.67,576.88 C951.87,571.93 956.82,570.71 967.81,571.21 C978.95,571.71 985.01,574.01 991.03,580.03 C1000.09,589.09 1002.96,604.47 998.01,617.47 C997.21,619.57 996.65,620.06 996.08,619.13 C995.45,618.12 995.14,618.19 994.65,619.47 C994.28,620.42 994.43,620.85 995.01,620.49 C995.56,620.16 996.00,620.43 996.00,621.09 C996.00,623.83 985.47,632.73 979.71,634.86 C972.97,637.35 960.14,637.69 953.30,635.55 ZM 974.82 622.40 C981.95,618.85 985.24,613.28 985.28,604.70 C985.33,594.28 981.30,587.43 973.37,584.40 C964.10,580.86 953.18,584.80 948.87,593.25 C945.76,599.36 945.78,609.06 948.93,614.66 C954.32,624.26 964.81,627.39 974.82,622.40 ZM 680.55 503.42 C674.53,499.80 669.03,496.09 668.33,495.17 C667.47,494.03 667.05,489.50 667.03,480.88 C666.99,465.91 667.20,465.50 677.88,459.50 L 685.01 455.50 L 684.76 409.05 L 684.50 362.60 L 676.17 357.63 L 667.85 352.66 L 654.82 365.69 L 641.79 378.71 L 641.94 392.38 L 642.09 406.04 L 639.29 408.65 C636.21,411.53 617.91,422.00 615.96,422.00 C614.38,422.00 592.51,409.32 591.05,407.56 C590.33,406.69 590.04,401.41 590.22,392.36 L 590.50 378.50 L 599.25 372.71 L 608.00 366.93 L 608.00 350.46 L 608.00 334.00 L 616.00 334.00 L 624.00 334.00 L 624.00 350.93 C624.00,373.86 623.71,373.79 641.82,355.67 L 655.36 342.13 L 652.68 338.26 C650.70,335.41 650.00,333.16 650.00,329.70 L 650.00 325.00 L 583.00 325.00 L 516.00 325.00 L 516.00 351.40 L 516.00 377.81 L 524.02 382.51 C528.44,385.10 532.49,388.04 533.02,389.04 C534.32,391.47 534.28,414.60 532.98,417.04 C531.60,419.61 510.59,432.00 507.62,432.00 C505.25,432.00 484.14,419.82 482.77,417.65 C482.36,417.02 482.03,410.42 482.03,403.00 C482.03,395.58 482.36,388.98 482.77,388.35 C483.17,387.72 487.10,385.00 491.50,382.31 L 499.50 377.41 L 499.76 317.25 L 500.02 257.08 L 491.26 251.29 L 482.50 245.50 L 482.50 230.50 L 482.50 215.50 L 494.48 208.25 C501.06,204.26 507.00,201.00 507.68,201.00 C509.62,201.00 529.26,212.97 531.75,215.67 C533.83,217.93 534.00,219.04 534.00,230.62 C534.00,237.50 533.55,243.98 532.99,245.02 C532.44,246.05 528.39,249.06 523.99,251.69 L 516.00 256.48 L 516.00 282.74 L 516.00 309.00 L 583.00 309.00 L 650.00 309.00 L 650.00 304.03 C650.00,299.98 650.53,298.46 652.91,295.76 L 655.81 292.45 L 641.86 278.25 C629.26,265.42 627.72,264.16 625.95,265.26 C624.14,266.39 624.00,267.70 624.00,283.24 L 624.00 300.00 L 616.00 300.00 L 608.00 300.00 L 608.00 283.55 C608.00,264.82 609.26,267.55 597.00,259.66 L 590.50 255.48 L 590.22 241.44 C589.90,224.87 588.78,226.69 605.22,217.08 L 615.94 210.82 L 624.75 215.86 C629.60,218.63 635.46,222.27 637.78,223.96 L 642.00 227.01 L 642.00 241.27 L 642.00 255.53 L 654.88 268.38 L 667.76 281.23 L 676.38 275.96 L 685.00 270.69 L 685.00 220.50 L 685.00 170.31 L 676.50 165.12 C666.85,159.22 667.67,161.38 667.90,142.58 C667.97,136.58 668.51,131.09 669.08,130.40 C670.19,129.06 689.28,117.57 692.25,116.45 C694.09,115.75 711.66,125.09 716.75,129.46 C719.30,131.65 719.46,132.33 719.79,142.14 C719.98,147.84 719.75,154.30 719.28,156.50 C718.50,160.14 717.69,160.95 710.22,165.50 L 702.01 170.50 L 702.01 221.11 L 702.00 271.71 L 710.75 276.75 L 719.50 281.79 L 731.05 270.36 C737.40,264.08 742.95,259.28 743.38,259.72 C743.81,260.15 744.02,259.98 743.83,259.34 C743.65,258.70 747.39,253.95 752.13,248.79 C758.26,242.13 762.55,238.45 766.88,236.14 C770.25,234.35 773.00,233.12 773.00,233.42 C773.00,233.72 771.20,234.88 769.00,236.00 C766.80,237.12 765.00,238.24 765.00,238.48 C765.00,238.72 766.80,238.28 769.00,237.50 C772.57,236.24 773.00,236.26 773.00,237.67 C773.00,238.93 773.29,239.00 774.44,238.05 C775.23,237.39 775.76,236.32 775.60,235.68 C775.45,235.03 775.52,234.84 775.75,235.25 C776.54,236.67 777.77,235.99 778.44,233.75 C779.10,231.56 779.14,231.56 779.99,233.50 C780.82,235.42 780.86,235.42 780.93,233.58 C780.97,232.52 781.79,230.74 782.75,229.62 C784.48,227.61 784.46,227.60 782.00,229.08 C778.75,231.03 774.00,233.07 774.00,232.53 C774.00,231.52 791.06,222.92 791.95,223.47 C792.50,223.81 794.28,223.39 795.92,222.54 C799.09,220.90 801.44,220.44 799.12,221.90 C798.32,222.41 798.07,223.31 798.52,224.04 C799.14,225.03 799.54,224.99 800.40,223.84 C801.87,221.88 804.64,220.92 806.63,221.69 C807.91,222.18 807.54,222.72 804.88,224.19 C803.02,225.22 802.40,225.86 803.50,225.61 C804.60,225.36 806.97,224.85 808.76,224.49 C810.60,224.12 811.74,223.39 811.39,222.82 C811.00,222.19 811.55,222.22 812.81,222.90 C817.55,225.44 817.06,223.70 812.25,220.90 C809.36,219.21 807.00,217.66 807.00,217.44 C807.00,216.97 825.63,226.82 829.00,229.07 C831.09,230.47 831.16,230.72 829.63,231.31 C828.60,231.71 828.14,231.58 828.51,230.99 C828.84,230.44 828.69,230.00 828.17,230.00 C827.05,230.00 825.70,234.71 826.47,235.95 C826.76,236.42 828.38,236.71 830.07,236.59 C832.58,236.41 833.05,236.70 832.67,238.17 C832.27,239.68 832.51,239.80 834.17,238.91 C835.25,238.33 837.66,238.06 839.52,238.31 C841.52,238.58 843.10,238.30 843.38,237.63 C843.63,237.01 843.88,240.64 843.92,245.70 L 844.00 254.90 L 836.75 250.82 C832.76,248.58 829.05,246.41 828.50,246.01 C827.95,245.60 823.12,242.97 817.77,240.16 C812.42,237.34 807.23,234.54 806.23,233.91 C804.74,232.98 802.94,233.60 796.06,237.41 C791.46,239.95 787.48,241.81 787.21,241.54 C786.94,241.27 787.45,240.76 788.35,240.42 C789.25,240.07 789.74,239.39 789.44,238.91 C789.14,238.42 789.60,238.29 790.46,238.62 C791.59,239.06 791.85,238.78 791.41,237.63 C790.93,236.37 790.38,236.26 788.81,237.10 C787.20,237.96 786.35,237.73 784.41,235.91 L 782.00 233.65 L 782.00 235.81 C782.00,237.27 782.80,238.16 784.49,238.59 C788.26,239.53 786.55,240.85 782.26,240.30 C778.82,239.87 778.66,239.95 780.40,241.26 C782.48,242.83 781.03,244.70 778.75,243.41 C777.81,242.88 777.78,243.01 778.64,243.94 C779.53,244.91 780.43,244.83 782.89,243.56 C789.04,240.38 785.84,243.04 778.25,247.42 C773.99,249.88 768.97,253.47 767.09,255.40 C765.22,257.34 763.19,258.64 762.59,258.30 C761.99,257.96 761.85,258.06 762.27,258.53 C762.70,259.00 755.78,266.70 746.89,275.64 L 730.73 291.91 L 733.87 294.54 C736.73,296.95 737.00,297.69 737.00,303.09 L 737.00 309.00 L 760.25 309.00 L 783.50 308.99 L 785.50 305.28 C786.60,303.24 789.43,300.22 791.79,298.57 C797.26,294.74 807.61,293.74 813.10,296.51 C817.45,298.72 821.09,302.04 820.39,303.17 C820.10,303.65 820.37,303.93 821.01,303.77 C823.31,303.23 826.00,310.20 826.00,316.67 C826.00,324.16 825.14,326.63 820.83,331.55 C816.61,336.34 810.86,338.96 804.50,338.96 C799.25,338.96 790.45,335.71 791.42,334.13 C791.73,333.63 791.23,333.29 790.31,333.36 C788.85,333.48 787.74,332.24 783.50,325.70 C782.63,324.35 779.57,324.23 759.75,324.72 L 737.00 325.29 L 737.00 329.50 C737.00,332.37 736.19,334.92 734.45,337.47 C733.05,339.54 732.04,341.56 732.20,341.97 C732.37,342.38 741.07,351.55 751.55,362.35 L 770.60 381.98 L 786.82 390.99 C795.74,395.95 803.59,399.99 804.27,399.99 C804.95,399.98 813.98,395.26 824.34,389.49 C834.70,383.72 843.38,379.00 843.63,379.00 C843.88,379.00 843.95,382.93 843.79,387.74 L 843.50 396.49 L 824.50 407.24 C814.05,413.16 804.91,418.00 804.18,418.00 C803.45,418.00 800.98,416.93 798.68,415.62 C796.38,414.31 787.08,409.08 778.00,403.99 L 761.50 394.73 L 740.48 373.19 L 719.45 351.64 L 710.72 356.98 L 701.98 362.32 L 702.24 408.85 L 702.50 455.38 L 710.40 460.12 C714.74,462.73 718.67,465.46 719.13,466.18 C720.30,468.03 720.21,492.74 719.03,494.95 C717.83,497.19 695.99,510.00 693.38,510.00 C692.35,510.00 686.57,507.04 680.55,503.42 ZM 699.16 489.32 L 704.09 486.64 L 703.79 480.63 C703.50,474.69 703.45,474.59 699.00,471.89 C696.53,470.39 694.05,469.13 693.50,469.10 C692.95,469.06 690.36,470.38 687.75,472.02 L 683.00 475.00 L 683.00 480.75 L 683.01 486.50 L 687.75 489.22 C690.36,490.72 692.89,491.96 693.36,491.97 C693.84,491.99 696.45,490.79 699.16,489.32 ZM 517.50 403.07 L 517.50 396.89 L 512.64 394.21 L 507.78 391.54 L 503.14 394.13 L 498.50 396.71 L 498.22 403.11 L 497.94 409.50 L 502.72 412.19 L 507.50 414.89 L 512.50 412.07 L 517.50 409.26 L 517.50 403.07 ZM 621.62 401.38 L 626.09 398.76 L 625.79 392.67 C625.50,386.59 625.49,386.57 620.80,383.67 L 616.10 380.77 L 611.30 383.72 L 606.50 386.66 L 606.20 392.73 L 605.91 398.80 L 610.20 401.30 C615.72,404.51 616.27,404.51 621.62,401.38 ZM 699.59 344.95 C705.95,341.31 712.51,334.20 715.21,328.00 C718.09,321.41 720.13,310.57 719.79,303.64 L 719.50 297.58 L 713.39 296.35 C710.03,295.67 704.11,293.70 700.23,291.96 L 693.18 288.81 L 688.75 291.40 C686.32,292.83 680.86,294.89 676.61,295.97 C672.37,297.06 668.46,298.21 667.93,298.54 C667.36,298.90 667.20,301.90 667.55,305.82 C669.00,322.03 672.02,330.25 679.32,337.86 C683.32,342.03 691.53,347.94 693.38,347.98 C693.86,347.99 696.66,346.63 699.59,344.95 ZM 799.00 336.60 C799.00,336.38 797.65,335.73 796.00,335.15 C792.53,333.94 791.90,334.62 795.25,335.97 C797.78,336.99 799.00,337.19 799.00,336.60 ZM 821.38 329.45 C821.72,328.56 821.56,328.16 820.99,328.51 C820.44,328.84 820.00,329.54 820.00,330.06 C820.00,331.50 820.72,331.18 821.38,329.45 ZM 824.12 319.33 C822.94,317.30 822.66,317.95 823.62,320.46 C823.97,321.36 824.46,321.88 824.72,321.62 C824.97,321.36 824.71,320.33 824.12,319.33 ZM 825.00 313.94 C825.00,313.42 824.34,313.00 823.53,313.00 C822.64,313.00 822.29,313.59 822.64,314.49 C823.23,316.03 825.00,315.62 825.00,313.94 ZM 799.48 296.86 C800.01,296.36 799.00,296.45 797.23,297.07 C795.45,297.69 794.00,298.41 794.00,298.67 C794.00,299.36 798.34,297.93 799.48,296.86 ZM 759.15 259.76 C758.13,258.75 758.01,258.84 758.55,260.25 C758.93,261.26 758.75,262.00 758.11,262.00 C757.50,262.00 757.00,262.55 757.00,263.21 C757.00,263.97 757.64,263.79 758.71,262.72 C760.08,261.34 760.17,260.77 759.15,259.76 ZM 749.97 253.78 C749.99,253.39 750.58,253.28 751.29,253.56 C752.07,253.86 752.57,253.26 752.57,252.02 C752.57,250.91 752.53,250.00 752.49,250.00 C752.44,250.00 750.63,251.87 748.45,254.15 C745.62,257.13 745.27,257.77 747.22,256.40 C748.71,255.36 749.95,254.18 749.97,253.78 ZM 625.99 240.66 L 625.97 234.50 L 620.93 231.72 L 615.90 228.94 L 610.95 231.72 L 606.00 234.50 L 606.00 240.73 L 606.00 246.96 L 611.13 249.89 L 616.26 252.82 L 621.13 249.82 L 626.00 246.83 L 625.99 240.66 ZM 829.77 244.00 C829.08,242.90 828.18,242.00 827.76,242.00 C827.34,242.00 827.00,241.56 827.00,241.03 C827.00,240.50 827.79,240.32 828.75,240.63 C830.17,241.08 830.23,241.00 829.05,240.16 C828.26,239.60 826.91,239.48 826.05,239.89 C824.14,240.81 822.91,240.73 821.10,239.58 C820.11,238.96 819.91,239.05 820.44,239.90 C821.00,240.80 827.39,244.52 830.76,245.89 C830.90,245.95 830.45,245.10 829.77,244.00 ZM 833.50 242.00 C833.84,241.45 833.39,241.00 832.50,241.00 C831.61,241.00 831.16,241.45 831.50,242.00 C831.84,242.55 832.29,243.00 832.50,243.00 C832.71,243.00 833.16,242.55 833.50,242.00 ZM 513.16 239.32 L 518.09 236.64 L 517.79 230.63 L 517.50 224.63 L 512.67 221.80 L 507.85 218.97 L 502.93 221.73 L 498.00 224.50 L 498.00 230.65 L 498.00 236.80 L 502.25 239.36 C504.59,240.77 506.89,241.94 507.36,241.96 C507.84,241.98 510.45,240.79 513.16,239.32 ZM 780.00 238.00 C780.00,237.45 779.55,237.00 779.00,237.00 C778.45,237.00 778.00,237.45 778.00,238.00 C778.00,238.55 778.45,239.00 779.00,239.00 C779.55,239.00 780.00,238.55 780.00,238.00 ZM 794.00 237.56 C794.00,237.32 793.55,236.84 793.00,236.50 C792.45,236.16 792.00,236.36 792.00,236.94 C792.00,237.52 792.45,238.00 793.00,238.00 C793.55,238.00 794.00,237.80 794.00,237.56 ZM 699.10 154.25 L 704.00 151.50 L 704.00 145.27 L 704.00 139.03 L 698.81 136.40 L 693.62 133.77 L 688.31 136.37 L 683.00 138.98 L 683.00 144.99 L 683.00 151.00 L 687.75 153.98 C690.36,155.62 692.88,156.97 693.35,156.98 C693.82,156.99 696.41,155.76 699.10,154.25 ZM 623.50 480.47 C622.95,480.31 621.27,479.90 619.77,479.57 C616.10,478.77 610.02,473.29 608.35,469.30 C605.14,461.62 607.51,453.14 614.45,447.53 C617.74,444.85 619.01,444.48 625.25,444.32 L 632.31 444.15 L 641.16 435.35 L 650.00 426.54 L 650.00 404.89 L 650.00 383.25 L 658.45 374.37 L 666.91 365.50 L 666.95 398.52 L 667.00 431.53 L 654.94 443.52 L 642.89 455.50 L 643.51 459.77 C644.44,466.21 640.59,474.01 634.85,477.28 C630.67,479.66 625.60,481.08 623.50,480.47 ZM 754.42 478.10 C747.47,474.95 743.22,467.35 744.35,460.15 C744.91,456.60 744.60,456.15 732.97,444.00 L 721.01 431.50 L 721.00 410.46 L 721.00 389.42 L 716.00 384.50 C711.15,379.72 711.00,379.40 711.00,373.82 C711.00,368.37 711.18,367.95 714.51,365.69 L 718.02 363.30 L 736.76 382.24 C757.12,402.82 755.16,401.39 787.87,419.59 L 804.24 428.70 L 831.13 413.76 L 858.03 398.82 L 855.58 395.91 C853.23,393.12 853.15,392.51 853.36,379.83 C853.58,366.71 853.59,366.65 856.35,364.58 C861.41,360.79 877.39,352.00 879.24,352.00 C881.26,352.00 900.05,362.48 903.07,365.29 C904.80,366.89 905.00,368.54 905.00,380.99 L 905.00 394.90 L 901.75 397.30 C899.96,398.62 894.33,402.06 889.23,404.94 C881.07,409.54 879.61,410.06 877.12,409.19 C874.64,408.33 873.18,408.82 865.39,413.19 C820.77,438.20 804.79,447.00 804.01,447.00 C803.50,447.00 790.36,439.79 774.80,430.97 C753.80,419.08 745.13,413.60 741.15,409.72 L 735.79 404.50 L 736.23 415.31 L 736.67 426.13 L 746.05 435.55 L 755.43 444.97 L 760.46 444.42 C766.69,443.73 773.34,446.78 776.72,451.86 C786.82,467.07 771.04,485.65 754.42,478.10 ZM 884.57 389.40 L 889.00 386.81 L 889.00 380.65 L 889.00 374.50 L 883.96 371.67 L 878.92 368.84 L 873.96 372.02 L 869.00 375.21 L 869.00 381.00 C869.00,386.75 869.03,386.82 873.25,389.36 C878.58,392.57 879.16,392.58 884.57,389.40 ZM 867.09 276.01 C861.39,272.71 856.11,269.51 855.36,268.88 C854.33,268.03 854.00,264.33 854.00,253.69 C854.00,240.93 854.19,239.43 856.03,237.46 C858.59,234.74 859.37,235.35 839.50,224.43 C800.67,203.09 804.86,205.04 801.50,206.73 C799.85,207.55 788.68,213.66 776.67,220.29 L 754.83 232.35 L 736.75 251.18 C726.81,261.53 718.25,270.00 717.74,270.00 C717.23,270.00 715.50,269.07 713.90,267.93 C711.28,266.06 711.00,265.31 711.01,260.18 L 711.01 254.50 L 718.26 246.98 C727.13,237.78 730.95,233.09 725.22,238.45 L 721.00 242.41 L 721.00 222.44 L 721.00 202.47 L 733.05 190.48 C744.46,179.13 745.06,178.33 744.51,175.26 C743.27,168.48 747.71,159.75 754.07,156.46 C757.39,154.75 764.68,154.55 768.68,156.07 C774.31,158.20 778.15,163.27 779.41,170.25 C779.87,172.81 779.72,174.00 778.94,174.00 C778.30,174.00 778.04,173.34 778.35,172.53 C778.66,171.72 778.47,170.79 777.94,170.46 C777.41,170.13 777.21,169.46 777.52,168.97 C778.62,167.19 775.13,161.24 771.75,159.15 C767.26,156.38 766.52,156.43 769.29,159.31 C770.50,160.59 771.77,161.50 772.11,161.34 C772.44,161.19 772.50,162.18 772.24,163.54 C771.84,165.60 772.07,165.91 773.54,165.34 C774.77,164.88 775.10,165.03 774.61,165.83 C774.21,166.47 774.36,167.00 774.94,167.00 C776.31,167.00 776.29,169.16 774.87,172.68 C773.24,176.73 773.20,180.00 774.78,180.00 C775.52,180.00 775.84,180.56 775.48,181.25 C775.14,181.94 775.56,181.63 776.43,180.56 C777.29,179.49 778.05,177.69 778.12,176.56 C778.21,174.97 778.33,174.89 778.68,176.18 C779.29,178.50 776.20,184.24 774.80,183.38 C774.17,182.99 773.97,183.14 774.33,183.73 C775.21,185.15 772.39,187.36 770.89,186.43 C770.18,185.99 769.95,186.11 770.33,186.73 C771.45,188.53 765.27,190.31 760.06,189.69 L 755.18 189.12 L 745.60 198.81 L 736.03 208.50 L 736.01 218.05 C736.00,224.26 735.56,228.09 734.75,229.00 C732.51,231.51 737.11,227.87 742.32,223.00 C745.39,220.13 757.34,212.80 775.32,202.76 C790.82,194.11 803.82,187.02 804.22,187.01 C804.83,187.00 828.33,199.99 864.60,220.41 C873.67,225.50 874.97,225.97 877.26,224.93 C879.57,223.87 880.93,224.44 892.15,231.13 L 904.50 238.50 L 904.75 252.50 C904.89,260.20 904.65,267.04 904.23,267.69 C903.06,269.49 881.15,282.00 879.18,282.00 C878.24,282.00 872.80,279.30 867.09,276.01 ZM 884.35 261.99 L 889.10 258.98 L 888.80 252.74 L 888.50 246.50 L 883.72 244.00 L 878.94 241.50 L 874.22 244.11 L 869.50 246.71 L 869.23 253.11 L 868.96 259.50 L 873.73 262.19 C876.35,263.67 878.75,264.91 879.05,264.94 C879.36,264.97 881.74,263.65 884.35,261.99 ZM 735.00 214.50 C735.00,209.39 734.68,208.00 733.50,208.00 C732.67,208.00 732.00,208.45 732.00,209.00 C732.00,209.55 732.45,210.00 733.00,210.00 C733.55,210.00 733.95,210.34 733.88,210.75 C733.56,212.76 734.06,221.00 734.50,221.00 C734.78,221.00 735.00,218.07 735.00,214.50 ZM 731.73 217.40 C731.40,217.06 730.53,217.03 729.81,217.32 C729.01,217.64 729.25,217.87 730.42,217.92 C731.47,217.96 732.06,217.73 731.73,217.40 ZM 724.53 212.19 C724.22,211.89 723.41,212.19 722.73,212.88 C721.75,213.86 721.87,213.98 723.29,213.44 C724.28,213.06 724.83,212.50 724.53,212.19 ZM 724.00 210.00 C724.00,209.45 723.55,209.00 723.00,209.00 C722.45,209.00 722.00,209.45 722.00,210.00 C722.00,210.55 722.45,211.00 723.00,211.00 C723.55,211.00 724.00,210.55 724.00,210.00 ZM 737.50 205.00 C738.50,203.90 739.08,203.00 738.81,203.00 C738.53,203.00 737.50,203.90 736.50,205.00 C735.50,206.10 734.92,207.00 735.19,207.00 C735.47,207.00 736.50,206.10 737.50,205.00 ZM 753.01 189.97 C753.94,188.24 754.75,188.07 759.41,188.62 C762.56,188.99 765.51,188.81 766.62,188.18 C768.43,187.15 768.42,187.11 766.50,187.12 C761.31,187.15 758.00,186.61 758.00,185.73 C758.00,185.17 757.43,185.23 756.66,185.87 C755.92,186.48 755.04,186.71 754.71,186.37 C754.37,186.04 753.39,186.47 752.52,187.34 C751.65,188.21 750.33,188.68 749.57,188.39 C747.72,187.68 746.56,189.77 747.91,191.39 C748.50,192.10 748.65,193.04 748.24,193.48 C747.83,193.91 748.50,193.75 749.73,193.11 C750.95,192.48 752.43,191.06 753.01,189.97 ZM 739.64 187.21 C740.68,187.55 748.00,181.84 748.00,180.69 C748.00,180.25 747.59,180.14 747.09,180.45 C746.58,180.76 746.02,180.55 745.83,179.98 C745.64,179.41 743.24,181.29 740.49,184.17 C737.75,187.04 736.24,188.84 737.14,188.16 C738.05,187.48 739.17,187.06 739.64,187.21 ZM 749.92 162.00 L 752.18 158.50 L 749.59 161.31 C748.17,162.85 747.00,164.61 747.00,165.22 C747.00,166.52 746.96,166.56 749.92,162.00 ZM 771.00 163.56 C771.00,161.33 769.43,160.89 769.27,163.07 C769.19,164.13 769.55,165.00 770.06,165.00 C770.58,165.00 771.00,164.35 771.00,163.56 ZM 757.73 160.40 C757.40,160.06 756.53,160.03 755.81,160.32 C755.01,160.64 755.25,160.87 756.42,160.92 C757.47,160.96 758.06,160.73 757.73,160.40 ZM 764.00 157.50 C766.43,156.11 766.37,156.07 761.75,156.04 C759.14,156.02 757.00,156.39 757.00,156.86 C757.00,157.34 758.24,157.52 759.75,157.28 C761.90,156.94 762.17,157.08 761.00,157.91 C758.79,159.47 761.09,159.16 764.00,157.50 ZM 658.00 258.80 L 650.50 250.60 L 650.50 229.32 L 650.50 208.05 L 641.50 198.96 C632.70,190.07 632.41,189.88 628.69,190.46 C617.68,192.15 607.00,183.19 607.00,172.24 C607.00,157.98 623.30,149.28 635.05,157.27 C640.68,161.11 642.40,164.34 642.82,171.90 L 643.21 178.74 L 655.11 190.61 L 667.00 202.47 L 667.00 234.73 C667.00,252.48 666.66,267.00 666.25,267.00 C665.84,267.00 662.12,263.31 658.00,258.80 ZM 838.00 234.92 L 835.50 232.88 L 838.75 234.47 C840.54,235.34 842.00,236.26 842.00,236.53 C842.00,237.52 840.41,236.88 838.00,234.92 ZM 827.51 234.01 C827.16,233.44 827.56,233.28 828.45,233.62 C830.18,234.28 830.50,235.00 829.06,235.00 C828.54,235.00 827.84,234.56 827.51,234.01 ZM 792.00 222.60 C792.00,221.51 803.39,215.94 804.84,216.33 C806.35,216.73 806.35,216.78 804.79,216.88 C803.86,216.95 800.80,218.35 798.00,220.00 C792.97,222.96 792.00,223.39 792.00,222.60 ZM 688.10 336.96 C680.59,331.51 675.43,320.86 674.83,309.52 L 674.57 304.55 L 681.53 301.96 C685.37,300.54 689.54,298.81 690.81,298.12 C692.81,297.03 694.19,297.33 701.41,300.43 C705.98,302.40 710.23,304.00 710.86,304.00 C711.55,304.00 712.00,305.86 712.00,308.78 C712.00,320.05 706.35,331.52 698.08,337.05 C695.65,338.67 693.35,340.00 692.98,340.00 C692.61,340.00 690.41,338.63 688.10,336.96 ZM 742.56 183.71 C742.94,182.72 743.50,182.17 743.81,182.47 C744.11,182.78 743.81,183.59 743.12,184.27 C742.14,185.25 742.02,185.13 742.56,183.71 Z" fill="rgba(0,0,0,1)"/>
</g>
</svg>